
Doomsday ( 2008 )

[BDrip 1080p - H264 - Ita DTS Eng Ac3]

 
http://forum.tntvillage.scambioetico.org/tntforum/index.php?showtopic=244757


[b].: Scheda :.[/b]

[IMG]http://img24.imageshack.us/img24/1526/nuovaimmaginey.jpg[/IMG]

 
http://www.imdb.it/title/tt0483607/

.: Trama :.

Nel 2008, il virus Reaper contagia la Scozia, inducendo il governo inglese a isolare l'intero paese con un muro.
Alcuni decenni dopo, il virus che si pensava circoscritto riappare a Londra, e il Primo Ministro decide di inviare una squadra nella zona in quarantena alla ricerca del dottor Kaine, un medico ricercatore che stava lavorando su una cura prima che la Scozia venisse isolata.
_____________________________________________________

In 2008, the Reaper virus infects Scotland, resulting in the country being walled off by the British government.
Decades later, the virus, thought to be contained, reappears in London, and Prime Minister decide to send a team into the walled-off area to find medical researcher Dr. Kane, who was last known to be working on a cure when Scotland was quarantined.


.: Dati :.

Video: 1080p 2.35:1
Language: Italian DTS-MA (Core?) 5.1, English Dolby Digital 5.1
Note: Home-made Ripping  (non sparate sul pianista...) con la nuova versione di Handbrake (9.5) che maneggia anche gli m2ts.


Per una precisa scelta tecnica ho deciso di incorporare nella release la traccia audio originale italiana in DTS, copiata tale e quale dal rip del BD, se sia MasterAudio o meno non ho modo di saperlo....
__________________________________

For a specific technical choice, I've set to put in the release the original italian DTS audio track, taken "as is" from the BD rip, but I don't exactly know if it's according to MasterAudio...


.: Analisi :.

General
Unique ID                        : 221048577200559932571859097702808344481 (0xA64C684B54FE64779FEB920604CAD7A1)
Complete name                    : Z: \Doomsday\D00MSD4Y.mkv
Format                           : Matroska
File size                        : 7.50 GiB
Duration                         : 1h 52mn
Overall bit rate                 : 9 515 Kbps
Encoded date                     : UTC 2011-03-20 13:22:35
Writing application              : mkvmerge v4.4.0 ('Die Wiederkehr') built on Oct 31 2010 21:52:48
Writing library                  : libebml v1.0.0 + libmatroska v1.0.0

Video
ID                               : 1
Format                           : AVC
Format/Info                      : Advanced Video Codec
Format profile                   : High@L5.0
Format settings, CABAC           : Yes
Format settings, ReFrames        : 6 frames
Codec ID                         : V_MPEG4/ISO/AVC
Duration                         : 1h 52mn
Bit rate                         : 7 125 Kbps
Width                            : 1 920 pixels
Height                           : 816 pixels
Display aspect ratio             : 2.35:1
Frame rate mode                  : Variable
Frame rate                       : 23.976 fps
Color space                      : YUV
Chroma subsampling               : 4:2:0
Bit depth                        : 8 bits
Scan type                        : Progressive
Bits/(Pixel*Frame)               : 0.190
Stream size                      : 5.62 GiB (75%)
Writing library                  : x264 core 112
Encoding settings                : cabac=1 / ref=6 / deblock=1:0:0 / analyse=0x3:0x113 / me=umh / subme=9 / psy=1 / psy_rd=1.00:0.00 / mixed_ref=1 / me_range=20 / chroma_me=1 / trellis=2 / 8x8dct=1 / cqm=0 / deadzone=21,11 / fast_pskip=1 / chroma_qp_offset=-2 / threads=6 / sliced_threads=0 / nr=0 / decimate=1 / interlaced=0 / constrained_intra=0 / bframes=5 / b_pyramid=2 / b_adapt=2 / b_bias=0 / direct=3 / weightb=1 / open_gop=0 / weightp=2 / keyint=240 / keyint_min=23 / scenecut=40 / intra_refresh=0 / rc_lookahead=50 / rc=crf / mbtree=1 / crf=20.0 / qcomp=0.60 / qpmin=3 / qpmax=51 / qpstep=4 / ip_ratio=1.40 / aq=1:1.00
Language                         : English
Color primaries                  : BT.709-5, BT.1361, IEC 61966-2-4, SMPTE RP177
Transfer characteristics         : BT.709-5, BT.1361
Matrix coefficients              : BT.709-5, BT.1361, IEC 61966-2-4 709, SMPTE RP177

Audio #1
ID                               : 2
Format                           : AC-3
Format/Info                      : Audio Coding 3
Mode extension                   : CM (complete main)
Codec ID                         : A_AC3
Duration                         : 1h 52mn
Bit rate mode                    : Constant
Bit rate                         : 640 Kbps
Channel(s)                       : 6 channels
Channel positions                : Front: L C R, Side: L R, LFE
Sampling rate                    : 48.0 KHz
Bit depth                        : 16 bits
Compression mode                 : Lossy
Stream size                      : 517 MiB (7%)
Language                         : English

Audio #2
ID                               : 3
Format                           : DTS
Format/Info                      : Digital Theater Systems
Format profile                   : MA / Core
Codec ID                         : A_DTS
Duration                         : 1h 52mn
Bit rate mode                    : Variable
Bit rate                         : 1 561 Kbps / 1 510 Kbps
Channel(s)                       : 6 channels
Channel positions                : Front: L C R, Side: L R, LFE
Sampling rate                    : 48.0 KHz
Bit depth                        : 16 bits
Compression mode                 : Lossless / Lossy
Language                         : Italian


.: Thanks :.

A tutti i releaser delle cui fatiche ho subdolamente e silenziosamente usufruito,
IMDb, Wikipedia e MyMovies.it per le info, MyMovies.dk per il software di archiviazione, Imageshack per l'hosting
